#N canvas 402 139 511 632 10;
#X declare -path ./lib;
#X obj 39 419 metro 50;
#X obj 70 549 s hand;
#X obj 19 589 s general;
#X obj 39 399 tgl 16 0 empty empty empty 0 -8 0 10 #fcfcfc #000000 #000000 0 1;
#X text 334 599 [ultraleap] version 0.1.0;
#N canvas 415 25 405 323 general-data 0;
#X floatatom 169 122 10 0 0 0 frameID - - 0;
#X floatatom 169 142 10 0 0 0 timestamp - - 0;
#X floatatom 169 182 5 0 0 0 hands - - 0;
#X obj 169 49 r general;
#X obj 169 75 unpack f f f f;
#X floatatom 169 162 10 0 0 0 framerate - - 0;
#X connect 3 0 4 0;
#X connect 4 0 0 0;
#X connect 4 1 1 0;
#X connect 4 2 5 0;
#X connect 4 3 2 0;
#X coords 0 -1 1 1 150 105 1 100 100;
#X restore 299 29 pd general-data;
#N canvas 152 45 919 649 flag-controls 0;
#X obj 220 119 tgl 15 0 empty to_general general 19 7 0 10 #fcfcfc #000000 #000000 0 1;
#X obj 220 339 tgl 15 0 empty to_palm_position position 19 7 0 10 #fcfcfc #000000 #000000 0 1;
#X obj 370 334 tgl 15 0 empty to_finger_position position 19 7 0 10 #fcfcfc #000000 #000000 0 1;
#X obj 370 364 tgl 15 0 empty to_finger_size size 19 7 0 10 #fcfcfc #000000 #000000 0 1;
#X obj 370 349 tgl 15 0 empty to_finger_velocity velocity 19 7 0 10 #fcfcfc #000000 #000000 0 1;
#X obj 220 309 tgl 15 0 empty to_palm_direction direction 19 7 0 10 #fcfcfc #000000 #000000 0 1;
#X obj 220 184 tgl 15 0 empty to_finger_count finger_count 19 7 0 10 #fcfcfc #000000 #000000 0 1;
#X obj 220 369 tgl 15 0 empty to_palm_velocity velocity 19 7 0 10 #fcfcfc #000000 #000000 0 1;
#X obj 220 324 tgl 15 0 empty to_palm_normal normal 19 7 0 10 #fcfcfc #000000 #000000 0 1;
#X msg 11 103 general \$1;
#X msg 11 153 finger_count \$1;
#X msg 11 346 palm_position \$1;
#X msg 11 386 palm_velocity \$1;
#X msg 11 326 palm_normal \$1;
#X msg 511 380 finger_size \$1;
#X msg 511 360 finger_velocity \$1;
#X obj 370 319 tgl 15 0 empty to_finger_direction direction 19 7 0 10 #fcfcfc #000000 #000000 0 1;
#X msg 511 320 finger_direction \$1;
#X text 218 145 hands;
#X text 367 279 fingers;
#X obj 370 139 tgl 15 0 empty empty all_on/off 19 7 0 10 #fcfcfc #000000 #000000 0 1;
#X obj 676 459 loadbang;
#X obj 676 559 declare -path ./lib;
#X text 673 524 this sets the GUI controls to match the default settings of [ultraleap], f 37;
#X obj 220 169 tgl 15 0 empty to_hand_type type 19 7 0 10 #fcfcfc #000000 #000000 0 1;
#X msg 676 479 \; to_general set 1 \; to_palm_position set 1 \;;
#X msg 11 133 hand_type \$1;
#X msg 11 306 palm_direction \$1;
#X msg 511 340 finger_position \$1;
#X obj 370 379 tgl 15 0 empty to_finger_is_extended is_extended 19 7 0 10 #fcfcfc #000000 #000000 0 1;
#X msg 511 400 finger_is_extended \$1;
#X obj 11 463 s \$0-ultraleap;
#X obj 511 454 s \$0-ultraleap;
#X text 217 285 palms;
#X obj 370 249 tgl 15 0 empty to_arm_width width 19 7 0 10 #fcfcfc #000000 #000000 0 1;
#X obj 370 219 tgl 15 0 empty to_wrist_position wrist_position 19 7 0 10 #fcfcfc #000000 #000000 0 1;
#X obj 370 234 tgl 15 0 empty to_elbow_position elbow_position 19 7 0 10 #fcfcfc #000000 #000000 0 1;
#X text 367 165 arms;
#X msg 511 250 arm_width \$1;
#X msg 511 210 wrist_position \$1;
#X msg 511 230 elbow_position \$1;
#X obj 220 354 tgl 15 0 empty to_palm_stabilized_position stabilized_position 19 7 0 10 #fcfcfc #000000 #000000 0 1;
#X msg 11 366 palm_stabilized_position \$1;
#X obj 370 304 tgl 15 0 empty to_finger_type type 19 7 0 10 #fcfcfc #000000 #000000 0 1;
#X msg 511 300 finger_type \$1;
#X obj 220 199 tgl 15 0 empty to_time_visible time_visible 19 7 0 10 #fcfcfc #000000 #000000 0 1;
#X obj 220 214 tgl 15 0 empty to_grab_strength grab_strength 19 7 0 10 #fcfcfc #000000 #000000 0 1;
#X obj 220 229 tgl 15 0 empty to_grab_angle grab_angle 19 7 0 10 #fcfcfc #000000 #000000 0 1;
#X obj 220 244 tgl 15 0 empty to_pinch_strength pinch_strength 19 7 0 10 #fcfcfc #000000 #000000 0 1;
#X obj 220 259 tgl 15 0 empty to_pinch_distance pinch_distance 19 7 0 10 #fcfcfc #000000 #000000 0 1;
#X msg 11 253 pinch_distance \$1;
#X msg 11 233 pinch_strength \$1;
#X msg 11 213 grab_angle \$1;
#X msg 11 193 grab_strength \$1;
#X msg 11 173 time_visible \$1;
#X obj 220 384 tgl 15 0 empty to_palm_width width 19 7 0 10 #fcfcfc #000000 #000000 0 1;
#X msg 11 406 palm_width \$1;
#X obj 370 119 hradio 16 1 0 3 empty empty tracking_mode 0 -8 0 10 #fcfcfc #000000 #000000 0;
#N canvas 671 381 415 318 set-tracking-mode 0;
#X obj 49 68 select 0 1 2;
#X obj 49 270 s \$0-ultraleap;
#X obj 49 38 inlet;
#X msg 89 169 tracking_mode hmd;
#X msg 49 209 tracking_mode desktop;
#X msg 129 129 tracking_mode screentop;
#X connect 0 0 4 0;
#X connect 0 1 3 0;
#X connect 0 2 5 0;
#X connect 2 0 0 0;
#X connect 3 0 1 0;
#X connect 4 0 1 0;
#X connect 5 0 1 0;
#X restore 510 99 pd set-tracking-mode;
#X obj 370 189 tgl 15 0 empty to_arm_center center 19 7 0 10 #fcfcfc #000000 #000000 0 1;
#X obj 370 204 tgl 15 0 empty to_arm_direction direction 19 7 0 10 #fcfcfc #000000 #000000 0 1;
#X msg 511 170 arm_center \$1;
#X msg 511 190 arm_direction \$1;
#X msg 676 39 \; to_general \$1 \; \; to_hand_type \$1 \; to_finger_count \$1 \; to_time_visible \$1 \; to_grab_strength \$1 \; to_grab_angle \$1 \; to_pinch_strength \$1 \; to_pinch_distance \$1 \; \; to_arm_center \$1 \; to_arm_direction \$1 \; to_wrist_position \$1 \; to_elbow_position \$1 \; to_arm_width \$1 \; \; to_palm_direction \$1 \; to_palm_normal \$1 \; to_palm_position \$1 \; to_palm_stabilized_position \$1 \; to_palm_velocity \$1 \; to_palm_width \$1 \; \; to_finger_type \$1 \; to_finger_direction \$1 \; to_finger_position \$1 \; to_finger_velocity \$1 \; to_finger_size \$1 \; to_finger_is_extended \$1 \;;
#X connect 0 0 9 0;
#X connect 1 0 11 0;
#X connect 2 0 28 0;
#X connect 3 0 14 0;
#X connect 4 0 15 0;
#X connect 5 0 27 0;
#X connect 6 0 10 0;
#X connect 7 0 12 0;
#X connect 8 0 13 0;
#X connect 9 0 31 0;
#X connect 10 0 31 0;
#X connect 11 0 31 0;
#X connect 12 0 31 0;
#X connect 13 0 31 0;
#X connect 14 0 32 0;
#X connect 15 0 32 0;
#X connect 16 0 17 0;
#X connect 17 0 32 0;
#X connect 20 0 63 0;
#X connect 21 0 25 0;
#X connect 24 0 26 0;
#X connect 26 0 31 0;
#X connect 27 0 31 0;
#X connect 28 0 32 0;
#X connect 29 0 30 0;
#X connect 30 0 32 0;
#X connect 34 0 38 0;
#X connect 35 0 39 0;
#X connect 36 0 40 0;
#X connect 38 0 32 0;
#X connect 39 0 32 0;
#X connect 40 0 32 0;
#X connect 41 0 42 0;
#X connect 42 0 31 0;
#X connect 43 0 44 0;
#X connect 44 0 32 0;
#X connect 45 0 54 0;
#X connect 46 0 53 0;
#X connect 47 0 52 0;
#X connect 48 0 51 0;
#X connect 49 0 50 0;
#X connect 50 0 31 0;
#X connect 51 0 31 0;
#X connect 52 0 31 0;
#X connect 53 0 31 0;
#X connect 54 0 31 0;
#X connect 55 0 56 0;
#X connect 56 0 31 0;
#X connect 57 0 58 0;
#X connect 59 0 61 0;
#X connect 60 0 62 0;
#X connect 61 0 32 0;
#X connect 62 0 32 0;
#X coords 0 -1 1 1 270 310 1 210 100;
#X restore 19 29 pd flag-controls;
#X obj 11 501 cnv 16 106 32 empty empty empty 20 12 0 10 #e0e0e0 #404040 0;
#X obj 19 509 ultraleap;
#X text 176 436 specific tracking data are output or suppressed based on the state of their corresponding flags. see inside [pd flag-controls] for details., f 48;
#X obj 19 359 r \$0-ultraleap;
#X text 62 398 poll device;
#N canvas 783 45 1101 594 hand-data 1;
#X obj 558 39 hand 1;
#X obj 18 39 hand 0;
#X restore 299 189 pd hand-data;
#N canvas 197 63 452 268 other-commands 0;
#X msg 48 29 info;
#X msg 88 109 timestamp_reset;
#X text 204 108 reset the timestamp reference point. affects timestamp data output from the "general" outlet., f 37;
#X obj 48 200 s \$0-ultraleap;
#X text 100 29 get information about the internal state of [ultraleap], f 32;
#X connect 0 0 3 0;
#X connect 1 0 3 0;
#X restore 299 323 pd other-commands;
#X text 176 389 [ultraleap] accesses tracking data from the Ultraleap and Leap Motion Controllers using the LeapC API (SDK version 5.7.2 or higher)., f 48;
#N canvas 162 478 502 376 ultraleap-info 0;
#X obj 36 299 pdcontrol;
#X msg 36 87 browse https://github.com/wbrent/ultraleap;
#X msg 76 217 browse https://docs.ultraleap.com/tracking-api/;
#X text 73 193 browse the LeapC SDK documentation here:;
#X msg 56 147 browse https://developer.leapmotion.com/tracking-software-download;
#X text 33 63 access the GitHub repo for [ultraleap] here:, f 47;
#X text 53 123 download the Leap SDK here:;
#X connect 1 0 0 0;
#X connect 2 0 0 0;
#X connect 4 0 0 0;
#X restore 382 563 pd ultraleap-info;
#X text 301 208 ^ open to see tracking data, f 28;
#X text 176 486 output from the object can be parsed using [route] objects \, as demonstrated in the sub-patches and abstractions in this help patch., f 48;
#N canvas 250 209 1150 692 cursor-test 0;
#X msg 31 517 pos \$1 \$2;
#X obj 31 476 pack f f;
#X obj 101 446 + 50;
#X obj 31 259 route direction;
#X obj 31 283 unpack f f;
#X obj 31 141 r hand;
#X obj 31 165 route 0;
#X obj 101 316 + 1;
#X obj 101 340 / 2;
#X obj 101 364 swap 1;
#X obj 101 389 -;
#X obj 31 316 + 1;
#X obj 31 340 / 2;
#X obj 31 195 route palm pinch_strength;
#N canvas 52 52 393 195 once 0;
#X obj 37 37 inlet;
#X obj 37 61 spigot 1;
#X obj 37 85 t b b;
#X obj 37 109 outlet;
#X obj 237 37 inlet;
#X msg 237 61 1;
#X msg 197 61 0;
#X connect 0 0 1 0;
#X connect 1 0 2 0;
#X connect 2 0 3 0;
#X connect 2 1 6 0;
#X connect 4 0 5 0;
#X connect 5 0 1 1;
#X connect 6 0 1 1;
#X restore 153 303 pd once;
#X obj 153 279 select 1 0;
#X obj 153 255 > 0.5;
#X obj 31 541 s \$0-bng-loc;
#X obj 153 327 s \$0-bng-loc;
#X msg 31 81 \; to_palm_direction 1 \; to_pinch_strength 1 \;;
#X text 29 47 activate the palm direction and pinch strength flags, f 29;
#X obj 300 50 cnv 16 800 600 empty empty empty 20 12 0 10 #e0e0e0 #404040 0;
#X obj 896 450 bng 19 250 50 0 empty \$0-bng-loc empty 0 -10 0 12 #fcfcfc #000000 #000000;
#X obj 31 446 + 300;
#X obj 31 422 * 800;
#X obj 101 422 * 600;
#X text 369 16 point your hand up/down/left/right to move the [bng] \, and pinch your index finger and thumb to activate it., f 109;
#X connect 0 0 17 0;
#X connect 1 0 0 0;
#X connect 2 0 1 1;
#X connect 3 0 4 0;
#X connect 4 0 11 0;
#X connect 4 1 7 0;
#X connect 5 0 6 0;
#X connect 6 0 13 0;
#X connect 7 0 8 0;
#X connect 8 0 9 0;
#X connect 9 0 10 0;
#X connect 9 1 10 1;
#X connect 10 0 25 0;
#X connect 11 0 12 0;
#X connect 12 0 24 0;
#X connect 13 0 3 0;
#X connect 13 1 16 0;
#X connect 14 0 18 0;
#X connect 15 0 14 0;
#X connect 15 1 14 1;
#X connect 16 0 15 0;
#X connect 23 0 1 0;
#X connect 24 0 23 0;
#X connect 25 0 2 0;
#X restore 299 249 pd cursor-test;
#X text 301 271 ^ open to see cursor demo, f 28;
#X connect 0 0 8 0;
#X connect 3 0 0 0;
#X connect 8 0 2 0;
#X connect 8 1 1 0;
#X connect 10 0 8 0;
