#N canvas 949 215 583 386 10;
#X floatatom 132 224 5 0 0 0 x - - 0;
#X floatatom 132 241 5 0 0 0 y - - 0;
#X floatatom 132 258 5 0 0 0 z - - 0;
#X floatatom 292 224 5 0 0 0 x - - 0;
#X floatatom 292 241 5 0 0 0 y - - 0;
#X floatatom 292 258 5 0 0 0 z - - 0;
#X floatatom 292 338 5 0 0 0 width - - 0;
#X text 69 223 center;
#X text 181 223 elbow position;
#X obj 205 28 inlet;
#X obj 205 48 route center direction elbow_position wrist_position width;
#X obj 205 78 unpack f f f;
#X obj 343 138 unpack f f f;
#X obj 22 276 cnv 16 308 50 empty empty empty 20 12 0 10 #dfdfdf #404040 0;
#X floatatom 132 277 5 0 0 0 x - - 0;
#X floatatom 132 294 5 0 0 0 y - - 0;
#X floatatom 132 311 5 0 0 0 z - - 0;
#X text 51 277 direction;
#X obj 274 108 unpack f f f;
#X floatatom 292 277 5 0 0 0 x - - 0;
#X floatatom 292 294 5 0 0 0 y - - 0;
#X floatatom 292 311 5 0 0 0 z - - 0;
#X text 181 276 wrist position;
#X obj 412 168 unpack f f f;
#X connect 9 0 10 0;
#X connect 10 0 11 0;
#X connect 10 1 18 0;
#X connect 10 2 12 0;
#X connect 10 3 23 0;
#X connect 10 4 6 0;
#X connect 11 0 0 0;
#X connect 11 1 1 0;
#X connect 11 2 2 0;
#X connect 12 0 3 0;
#X connect 12 1 4 0;
#X connect 12 2 5 0;
#X connect 18 0 14 0;
#X connect 18 1 15 0;
#X connect 18 2 16 0;
#X connect 23 0 19 0;
#X connect 23 1 20 0;
#X connect 23 2 21 0;
#X coords 0 -1 1 1 312 160 1 20 200;
