#N canvas 279 129 544 421 10;
#X obj 174 30 inlet;
#X obj 174 55 route \$1;
#X obj 174 81 route type direction position velocity size is_extended;
#X obj 102 198 cnv 16 56 50 empty empty empty 20 12 0 10 #dfdfdf #404040 0;
#X floatatom 124 146 5 0 0 0 x - - 0;
#X floatatom 124 163 5 0 0 0 y - - 0;
#X floatatom 124 180 5 0 0 0 z - - 0;
#X obj 174 123 unpack f f f;
#X obj 102 304 cnv 16 56 34 empty empty empty 20 12 0 10 #dfdfdf #404040 0;
#X floatatom 124 252 5 0 0 0 x - - 0;
#X floatatom 124 269 5 0 0 0 y - - 0;
#X floatatom 124 286 5 0 0 0 z - - 0;
#X obj 174 232 unpack f f f;
#X floatatom 124 305 5 0 0 0 wdt - - 0;
#X floatatom 124 322 5 0 0 0 len - - 0;
#X floatatom 124 199 5 0 0 0 x - - 0;
#X floatatom 124 216 5 0 0 0 y - - 0;
#X floatatom 124 233 5 0 0 0 z - - 0;
#X obj 174 179 unpack f f f;
#X obj 410 189 unpack f f;
#X obj 140 346 tgl 16 0 empty empty ext -24 8 0 10 #fcfcfc #000000 #000000 0 1;
#X symbolatom 106 126 8 0 0 0 - - - 0;
#X obj 174 102 symbol;
#X connect 0 0 1 0;
#X connect 1 0 2 0;
#X connect 2 0 22 0;
#X connect 2 1 7 0;
#X connect 2 2 18 0;
#X connect 2 3 12 0;
#X connect 2 4 19 0;
#X connect 2 5 20 0;
#X connect 7 0 4 0;
#X connect 7 1 5 0;
#X connect 7 2 6 0;
#X connect 12 0 9 0;
#X connect 12 1 10 0;
#X connect 12 2 11 0;
#X connect 18 0 15 0;
#X connect 18 1 16 0;
#X connect 18 2 17 0;
#X connect 19 0 13 0;
#X connect 19 1 14 0;
#X connect 22 0 21 0;
#X coords 0 -1 1 1 60 270 1 100 100;
