#N canvas 279 129 526 395 10;
#X obj 174 30 inlet;
#X obj 174 55 route \$1;
#X obj 102 168 cnv 16 56 50 empty empty empty 20 12 0 10 #dfdfdf #404040 0;
#X floatatom 124 116 5 0 0 0 x - - 0;
#X floatatom 124 133 5 0 0 0 y - - 0;
#X floatatom 124 150 5 0 0 0 z - - 0;
#X obj 174 113 unpack f f f;
#X obj 102 274 cnv 16 56 34 empty empty empty 20 12 0 10 #dfdfdf #404040 0;
#X floatatom 124 222 5 0 0 0 x - - 0;
#X floatatom 124 239 5 0 0 0 y - - 0;
#X floatatom 124 256 5 0 0 0 z - - 0;
#X obj 174 222 unpack f f f;
#X floatatom 274 275 5 0 0 0 wdt - - 0;
#X floatatom 274 292 5 0 0 0 len - - 0;
#X floatatom 124 169 5 0 0 0 x - - 0;
#X floatatom 124 186 5 0 0 0 y - - 0;
#X floatatom 124 203 5 0 0 0 z - - 0;
#X obj 174 169 unpack f f f;
#X obj 323 276 unpack f f;
#X obj 174 81 route direction position velocity size is_extended;
#X obj 127 285 tgl 16 0 empty empty empty 0 -8 0 10 #fcfcfc #000000 #000000 0 1;
#X connect 0 0 1 0;
#X connect 1 0 19 0;
#X connect 6 0 3 0;
#X connect 6 1 4 0;
#X connect 6 2 5 0;
#X connect 11 0 8 0;
#X connect 11 1 9 0;
#X connect 11 2 10 0;
#X connect 17 0 14 0;
#X connect 17 1 15 0;
#X connect 17 2 16 0;
#X connect 18 0 12 0;
#X connect 18 1 13 0;
#X connect 19 0 6 0;
#X connect 19 1 17 0;
#X connect 19 2 11 0;
#X connect 19 3 18 0;
#X connect 19 4 20 0;
#X coords 0 -1 1 1 60 210 1 100 100;
