#N canvas 114 40 1147 489 10;
#X obj 648 51 route \$1;
#X floatatom 305 419 5 0 0 0 finger_count - - 0;
#X obj 648 24 r hand;
#X text 238 192 direction;
#X text 244 244 position;
#X text 244 297 velocity;
#X text 268 350 size;
#X obj 295 31 unpack f f f;
#X obj 495 31 unpack f f f;
#X obj 121 186 cnv 16 106 50 empty empty empty 20 12 0 10 #e0e0e0 #404040 0;
#X floatatom 195 129 5 0 0 0 x - - 0;
#X floatatom 195 146 5 0 0 0 y - - 0;
#X floatatom 195 163 5 0 0 0 z - - 0;
#X text 124 128 direction;
#X obj 195 31 unpack f f f;
#X obj 121 300 cnv 16 106 50 empty empty empty 20 12 0 10 #e0e0e0 #404040 0;
#X floatatom 195 300 5 0 0 0 x - - 0;
#X floatatom 195 317 5 0 0 0 y - - 0;
#X floatatom 195 334 5 0 0 0 z - - 0;
#X text 124 300 palm velocity, f 8;
#X obj 395 31 unpack f f f;
#X floatatom 195 243 5 0 0 0 x - - 0;
#X floatatom 195 260 5 0 0 0 y - - 0;
#X floatatom 195 277 5 0 0 0 z - - 0;
#X floatatom 195 186 5 0 0 0 x - - 0;
#X floatatom 195 203 5 0 0 0 y - - 0;
#X floatatom 195 220 5 0 0 0 z - - 0;
#X text 124 185 palm normal, f 6;
#X text 124 243 palm position, f 8;
#X symbolatom 299 129 10 0 0 1 type - - 0;
#X obj 648 271 symbol;
#X obj 648 72 route palm finger;
#X obj 778 72 route type finger_count visible_time pinch_strength pinch_distance grab_strength grab_angle;
#X floatatom 305 399 5 0 0 0 time - - 0;
#X floatatom 375 399 5 0 0 0 ps - - 0;
#X floatatom 445 399 5 0 0 0 pd - - 0;
#X floatatom 515 399 5 0 0 0 gs - - 0;
#X floatatom 585 399 5 0 0 0 ga - - 0;
#X obj 891 243 unpack f f f;
#X floatatom 195 357 5 0 0 0 x - - 0;
#X floatatom 195 374 5 0 0 0 y - - 0;
#X floatatom 195 391 5 0 0 0 z - - 0;
#X text 124 357 palm stabilized position, f 8;
#X floatatom 145 419 5 0 0 0 width - - 0;
#X obj 648 123 route direction position velocity normal stabilized_position width;
#X obj 299 176 finger 0;
#X obj 362 176 finger 1;
#X obj 425 176 finger 2;
#X obj 488 176 finger 3;
#X obj 551 176 finger 4;
#X connect 0 0 31 0;
#X connect 2 0 0 0;
#X connect 7 0 21 0;
#X connect 7 1 22 0;
#X connect 7 2 23 0;
#X connect 8 0 24 0;
#X connect 8 1 25 0;
#X connect 8 2 26 0;
#X connect 14 0 10 0;
#X connect 14 1 11 0;
#X connect 14 2 12 0;
#X connect 20 0 16 0;
#X connect 20 1 17 0;
#X connect 20 2 18 0;
#X connect 30 0 29 0;
#X connect 31 0 44 0;
#X connect 31 1 45 0;
#X connect 31 1 46 0;
#X connect 31 1 47 0;
#X connect 31 1 48 0;
#X connect 31 1 49 0;
#X connect 31 2 32 0;
#X connect 32 0 30 0;
#X connect 32 1 1 0;
#X connect 32 2 33 0;
#X connect 32 3 34 0;
#X connect 32 4 35 0;
#X connect 32 5 36 0;
#X connect 32 6 37 0;
#X connect 38 0 39 0;
#X connect 38 1 40 0;
#X connect 38 2 41 0;
#X connect 44 0 14 0;
#X connect 44 1 7 0;
#X connect 44 2 20 0;
#X connect 44 3 8 0;
#X connect 44 4 38 0;
#X connect 44 5 43 0;
#X coords 0 -1 1 1 524 340 1 100 100;
